<mxfile host="Electron" modified="2024-12-16T12:46:33.142Z" agent="Mozilla/5.0 (Windows NT 10.0; Win64; x64) AppleWebKit/537.36 (KHTML, like Gecko) draw.io/23.1.5 Chrome/120.0.6099.109 Electron/28.1.0 Safari/537.36" etag="frC3A1QIV0EL9DYoeeWp" version="23.1.5" type="device">
  <diagram name="Page-1" id="eB4_xtLybcsOjLqDLZQW">
    <mxGraphModel dx="1194" dy="1825" grid="1" gridSize="10" guides="1" tooltips="1" connect="1" arrows="1" fold="1" page="1" pageScale="1" pageWidth="827" pageHeight="1169" math="0" shadow="0">
      <root>
        <mxCell id="0" />
        <mxCell id="1" parent="0" />
        <mxCell id="DcUsjoclc4RK8WbiUvSw-1" value="User" style="swimlane;fontStyle=0;childLayout=stackLayout;horizontal=1;startSize=26;fillColor=none;horizontalStack=0;resizeParent=1;resizeParentMax=0;resizeLast=0;collapsible=1;marginBottom=0;whiteSpace=wrap;html=1;" parent="1" vertex="1">
          <mxGeometry x="50" y="150" width="140" height="320" as="geometry" />
        </mxCell>
        <mxCell id="DcUsjoclc4RK8WbiUvSw-2" value="userId: int" style="text;strokeColor=none;fillColor=none;align=left;verticalAlign=top;spacingLeft=4;spacingRight=4;overflow=hidden;rotatable=0;points=[[0,0.5],[1,0.5]];portConstraint=eastwest;whiteSpace=wrap;html=1;" parent="DcUsjoclc4RK8WbiUvSw-1" vertex="1">
          <mxGeometry y="26" width="140" height="26" as="geometry" />
        </mxCell>
        <mxCell id="DcUsjoclc4RK8WbiUvSw-3" value="firstname: string" style="text;strokeColor=none;fillColor=none;align=left;verticalAlign=top;spacingLeft=4;spacingRight=4;overflow=hidden;rotatable=0;points=[[0,0.5],[1,0.5]];portConstraint=eastwest;whiteSpace=wrap;html=1;" parent="DcUsjoclc4RK8WbiUvSw-1" vertex="1">
          <mxGeometry y="52" width="140" height="26" as="geometry" />
        </mxCell>
        <mxCell id="DcUsjoclc4RK8WbiUvSw-5" value="lastname: string" style="text;strokeColor=none;fillColor=none;align=left;verticalAlign=top;spacingLeft=4;spacingRight=4;overflow=hidden;rotatable=0;points=[[0,0.5],[1,0.5]];portConstraint=eastwest;whiteSpace=wrap;html=1;" parent="DcUsjoclc4RK8WbiUvSw-1" vertex="1">
          <mxGeometry y="78" width="140" height="26" as="geometry" />
        </mxCell>
        <mxCell id="DcUsjoclc4RK8WbiUvSw-6" value="email: string" style="text;strokeColor=none;fillColor=none;align=left;verticalAlign=top;spacingLeft=4;spacingRight=4;overflow=hidden;rotatable=0;points=[[0,0.5],[1,0.5]];portConstraint=eastwest;whiteSpace=wrap;html=1;" parent="DcUsjoclc4RK8WbiUvSw-1" vertex="1">
          <mxGeometry y="104" width="140" height="26" as="geometry" />
        </mxCell>
        <mxCell id="DcUsjoclc4RK8WbiUvSw-8" value="password: string" style="text;strokeColor=none;fillColor=none;align=left;verticalAlign=top;spacingLeft=4;spacingRight=4;overflow=hidden;rotatable=0;points=[[0,0.5],[1,0.5]];portConstraint=eastwest;whiteSpace=wrap;html=1;" parent="DcUsjoclc4RK8WbiUvSw-1" vertex="1">
          <mxGeometry y="130" width="140" height="26" as="geometry" />
        </mxCell>
        <mxCell id="DcUsjoclc4RK8WbiUvSw-9" value="address: string" style="text;strokeColor=none;fillColor=none;align=left;verticalAlign=top;spacingLeft=4;spacingRight=4;overflow=hidden;rotatable=0;points=[[0,0.5],[1,0.5]];portConstraint=eastwest;whiteSpace=wrap;html=1;" parent="DcUsjoclc4RK8WbiUvSw-1" vertex="1">
          <mxGeometry y="156" width="140" height="26" as="geometry" />
        </mxCell>
        <mxCell id="DcUsjoclc4RK8WbiUvSw-10" value="phoneNumber: string" style="text;strokeColor=none;fillColor=none;align=left;verticalAlign=top;spacingLeft=4;spacingRight=4;overflow=hidden;rotatable=0;points=[[0,0.5],[1,0.5]];portConstraint=eastwest;whiteSpace=wrap;html=1;" parent="DcUsjoclc4RK8WbiUvSw-1" vertex="1">
          <mxGeometry y="182" width="140" height="28" as="geometry" />
        </mxCell>
        <mxCell id="DcUsjoclc4RK8WbiUvSw-11" value="role: Role" style="text;strokeColor=none;fillColor=none;align=left;verticalAlign=top;spacingLeft=4;spacingRight=4;overflow=hidden;rotatable=0;points=[[0,0.5],[1,0.5]];portConstraint=eastwest;whiteSpace=wrap;html=1;" parent="DcUsjoclc4RK8WbiUvSw-1" vertex="1">
          <mxGeometry y="210" width="140" height="26" as="geometry" />
        </mxCell>
        <mxCell id="DcUsjoclc4RK8WbiUvSw-12" value="profileImage: string" style="text;strokeColor=none;fillColor=none;align=left;verticalAlign=top;spacingLeft=4;spacingRight=4;overflow=hidden;rotatable=0;points=[[0,0.5],[1,0.5]];portConstraint=eastwest;whiteSpace=wrap;html=1;" parent="DcUsjoclc4RK8WbiUvSw-1" vertex="1">
          <mxGeometry y="236" width="140" height="26" as="geometry" />
        </mxCell>
        <mxCell id="DcUsjoclc4RK8WbiUvSw-13" value="dateCreated: date" style="text;strokeColor=none;fillColor=none;align=left;verticalAlign=top;spacingLeft=4;spacingRight=4;overflow=hidden;rotatable=0;points=[[0,0.5],[1,0.5]];portConstraint=eastwest;whiteSpace=wrap;html=1;" parent="DcUsjoclc4RK8WbiUvSw-1" vertex="1">
          <mxGeometry y="262" width="140" height="26" as="geometry" />
        </mxCell>
        <mxCell id="DcUsjoclc4RK8WbiUvSw-4" value="dateUpdated: date" style="text;strokeColor=none;fillColor=none;align=left;verticalAlign=top;spacingLeft=4;spacingRight=4;overflow=hidden;rotatable=0;points=[[0,0.5],[1,0.5]];portConstraint=eastwest;whiteSpace=wrap;html=1;" parent="DcUsjoclc4RK8WbiUvSw-1" vertex="1">
          <mxGeometry y="288" width="140" height="32" as="geometry" />
        </mxCell>
        <mxCell id="DcUsjoclc4RK8WbiUvSw-14" value="Product" style="swimlane;fontStyle=0;childLayout=stackLayout;horizontal=1;startSize=26;fillColor=none;horizontalStack=0;resizeParent=1;resizeParentMax=0;resizeLast=0;collapsible=1;marginBottom=0;whiteSpace=wrap;html=1;" parent="1" vertex="1">
          <mxGeometry x="660" y="120" width="140" height="240" as="geometry" />
        </mxCell>
        <mxCell id="DcUsjoclc4RK8WbiUvSw-15" value="productId: int" style="text;strokeColor=none;fillColor=none;align=left;verticalAlign=top;spacingLeft=4;spacingRight=4;overflow=hidden;rotatable=0;points=[[0,0.5],[1,0.5]];portConstraint=eastwest;whiteSpace=wrap;html=1;" parent="DcUsjoclc4RK8WbiUvSw-14" vertex="1">
          <mxGeometry y="26" width="140" height="26" as="geometry" />
        </mxCell>
        <mxCell id="DcUsjoclc4RK8WbiUvSw-16" value="name: string" style="text;strokeColor=none;fillColor=none;align=left;verticalAlign=top;spacingLeft=4;spacingRight=4;overflow=hidden;rotatable=0;points=[[0,0.5],[1,0.5]];portConstraint=eastwest;whiteSpace=wrap;html=1;" parent="DcUsjoclc4RK8WbiUvSw-14" vertex="1">
          <mxGeometry y="52" width="140" height="26" as="geometry" />
        </mxCell>
        <mxCell id="DcUsjoclc4RK8WbiUvSw-17" value="description: string" style="text;strokeColor=none;fillColor=none;align=left;verticalAlign=top;spacingLeft=4;spacingRight=4;overflow=hidden;rotatable=0;points=[[0,0.5],[1,0.5]];portConstraint=eastwest;whiteSpace=wrap;html=1;" parent="DcUsjoclc4RK8WbiUvSw-14" vertex="1">
          <mxGeometry y="78" width="140" height="26" as="geometry" />
        </mxCell>
        <mxCell id="DcUsjoclc4RK8WbiUvSw-19" value="price: double" style="text;strokeColor=none;fillColor=none;align=left;verticalAlign=top;spacingLeft=4;spacingRight=4;overflow=hidden;rotatable=0;points=[[0,0.5],[1,0.5]];portConstraint=eastwest;whiteSpace=wrap;html=1;" parent="DcUsjoclc4RK8WbiUvSw-14" vertex="1">
          <mxGeometry y="104" width="140" height="26" as="geometry" />
        </mxCell>
        <mxCell id="DcUsjoclc4RK8WbiUvSw-22" value="image: string" style="text;strokeColor=none;fillColor=none;align=left;verticalAlign=top;spacingLeft=4;spacingRight=4;overflow=hidden;rotatable=0;points=[[0,0.5],[1,0.5]];portConstraint=eastwest;whiteSpace=wrap;html=1;" parent="DcUsjoclc4RK8WbiUvSw-14" vertex="1">
          <mxGeometry y="130" width="140" height="26" as="geometry" />
        </mxCell>
        <mxCell id="DcUsjoclc4RK8WbiUvSw-24" value="quantityAvailable: int" style="text;strokeColor=none;fillColor=none;align=left;verticalAlign=top;spacingLeft=4;spacingRight=4;overflow=hidden;rotatable=0;points=[[0,0.5],[1,0.5]];portConstraint=eastwest;whiteSpace=wrap;html=1;" parent="DcUsjoclc4RK8WbiUvSw-14" vertex="1">
          <mxGeometry y="156" width="140" height="26" as="geometry" />
        </mxCell>
        <mxCell id="DcUsjoclc4RK8WbiUvSw-29" value="dateCreated: date" style="text;strokeColor=none;fillColor=none;align=left;verticalAlign=top;spacingLeft=4;spacingRight=4;overflow=hidden;rotatable=0;points=[[0,0.5],[1,0.5]];portConstraint=eastwest;whiteSpace=wrap;html=1;" parent="DcUsjoclc4RK8WbiUvSw-14" vertex="1">
          <mxGeometry y="182" width="140" height="26" as="geometry" />
        </mxCell>
        <mxCell id="DcUsjoclc4RK8WbiUvSw-30" value="dateUpdated: date" style="text;strokeColor=none;fillColor=none;align=left;verticalAlign=top;spacingLeft=4;spacingRight=4;overflow=hidden;rotatable=0;points=[[0,0.5],[1,0.5]];portConstraint=eastwest;whiteSpace=wrap;html=1;" parent="DcUsjoclc4RK8WbiUvSw-14" vertex="1">
          <mxGeometry y="208" width="140" height="32" as="geometry" />
        </mxCell>
        <mxCell id="DcUsjoclc4RK8WbiUvSw-31" value="Order" style="swimlane;fontStyle=0;childLayout=stackLayout;horizontal=1;startSize=26;fillColor=none;horizontalStack=0;resizeParent=1;resizeParentMax=0;resizeLast=0;collapsible=1;marginBottom=0;whiteSpace=wrap;html=1;" parent="1" vertex="1">
          <mxGeometry x="299" y="-20" width="200" height="156" as="geometry" />
        </mxCell>
        <mxCell id="DcUsjoclc4RK8WbiUvSw-32" value="orderId: int" style="text;strokeColor=none;fillColor=none;align=left;verticalAlign=top;spacingLeft=4;spacingRight=4;overflow=hidden;rotatable=0;points=[[0,0.5],[1,0.5]];portConstraint=eastwest;whiteSpace=wrap;html=1;" parent="DcUsjoclc4RK8WbiUvSw-31" vertex="1">
          <mxGeometry y="26" width="200" height="26" as="geometry" />
        </mxCell>
        <mxCell id="DcUsjoclc4RK8WbiUvSw-34" value="orderDate: date" style="text;strokeColor=none;fillColor=none;align=left;verticalAlign=top;spacingLeft=4;spacingRight=4;overflow=hidden;rotatable=0;points=[[0,0.5],[1,0.5]];portConstraint=eastwest;whiteSpace=wrap;html=1;" parent="DcUsjoclc4RK8WbiUvSw-31" vertex="1">
          <mxGeometry y="52" width="200" height="26" as="geometry" />
        </mxCell>
        <mxCell id="DcUsjoclc4RK8WbiUvSw-35" value="shippingAddress: string" style="text;strokeColor=none;fillColor=none;align=left;verticalAlign=top;spacingLeft=4;spacingRight=4;overflow=hidden;rotatable=0;points=[[0,0.5],[1,0.5]];portConstraint=eastwest;whiteSpace=wrap;html=1;" parent="DcUsjoclc4RK8WbiUvSw-31" vertex="1">
          <mxGeometry y="78" width="200" height="26" as="geometry" />
        </mxCell>
        <mxCell id="DcUsjoclc4RK8WbiUvSw-36" value="totalAmount: double" style="text;strokeColor=none;fillColor=none;align=left;verticalAlign=top;spacingLeft=4;spacingRight=4;overflow=hidden;rotatable=0;points=[[0,0.5],[1,0.5]];portConstraint=eastwest;whiteSpace=wrap;html=1;" parent="DcUsjoclc4RK8WbiUvSw-31" vertex="1">
          <mxGeometry y="104" width="200" height="26" as="geometry" />
        </mxCell>
        <mxCell id="DcUsjoclc4RK8WbiUvSw-37" value="paymentStatus: PaymentStatus" style="text;strokeColor=none;fillColor=none;align=left;verticalAlign=top;spacingLeft=4;spacingRight=4;overflow=hidden;rotatable=0;points=[[0,0.5],[1,0.5]];portConstraint=eastwest;whiteSpace=wrap;html=1;" parent="DcUsjoclc4RK8WbiUvSw-31" vertex="1">
          <mxGeometry y="130" width="200" height="26" as="geometry" />
        </mxCell>
        <mxCell id="DcUsjoclc4RK8WbiUvSw-42" value="Cart" style="swimlane;fontStyle=0;childLayout=stackLayout;horizontal=1;startSize=26;fillColor=none;horizontalStack=0;resizeParent=1;resizeParentMax=0;resizeLast=0;collapsible=1;marginBottom=0;whiteSpace=wrap;html=1;" parent="1" vertex="1">
          <mxGeometry x="354" y="507" width="120" height="78" as="geometry" />
        </mxCell>
        <mxCell id="DcUsjoclc4RK8WbiUvSw-43" value="cartId: int" style="text;strokeColor=none;fillColor=none;align=left;verticalAlign=top;spacingLeft=4;spacingRight=4;overflow=hidden;rotatable=0;points=[[0,0.5],[1,0.5]];portConstraint=eastwest;whiteSpace=wrap;html=1;" parent="DcUsjoclc4RK8WbiUvSw-42" vertex="1">
          <mxGeometry y="26" width="120" height="26" as="geometry" />
        </mxCell>
        <mxCell id="DcUsjoclc4RK8WbiUvSw-44" value="totalPrice: double" style="text;strokeColor=none;fillColor=none;align=left;verticalAlign=top;spacingLeft=4;spacingRight=4;overflow=hidden;rotatable=0;points=[[0,0.5],[1,0.5]];portConstraint=eastwest;whiteSpace=wrap;html=1;" parent="DcUsjoclc4RK8WbiUvSw-42" vertex="1">
          <mxGeometry y="52" width="120" height="26" as="geometry" />
        </mxCell>
        <mxCell id="DcUsjoclc4RK8WbiUvSw-49" value="Payment" style="swimlane;fontStyle=0;childLayout=stackLayout;horizontal=1;startSize=26;fillColor=none;horizontalStack=0;resizeParent=1;resizeParentMax=0;resizeLast=0;collapsible=1;marginBottom=0;whiteSpace=wrap;html=1;" parent="1" vertex="1">
          <mxGeometry x="279" y="270" width="270" height="156" as="geometry" />
        </mxCell>
        <mxCell id="DcUsjoclc4RK8WbiUvSw-50" value="paymentId: int" style="text;strokeColor=none;fillColor=none;align=left;verticalAlign=top;spacingLeft=4;spacingRight=4;overflow=hidden;rotatable=0;points=[[0,0.5],[1,0.5]];portConstraint=eastwest;whiteSpace=wrap;html=1;" parent="DcUsjoclc4RK8WbiUvSw-49" vertex="1">
          <mxGeometry y="26" width="270" height="26" as="geometry" />
        </mxCell>
        <mxCell id="DcUsjoclc4RK8WbiUvSw-51" value="paymentMethode: PaymentMethode" style="text;strokeColor=none;fillColor=none;align=left;verticalAlign=top;spacingLeft=4;spacingRight=4;overflow=hidden;rotatable=0;points=[[0,0.5],[1,0.5]];portConstraint=eastwest;whiteSpace=wrap;html=1;" parent="DcUsjoclc4RK8WbiUvSw-49" vertex="1">
          <mxGeometry y="52" width="270" height="26" as="geometry" />
        </mxCell>
        <mxCell id="DcUsjoclc4RK8WbiUvSw-52" value="paymentAmount: double" style="text;strokeColor=none;fillColor=none;align=left;verticalAlign=top;spacingLeft=4;spacingRight=4;overflow=hidden;rotatable=0;points=[[0,0.5],[1,0.5]];portConstraint=eastwest;whiteSpace=wrap;html=1;" parent="DcUsjoclc4RK8WbiUvSw-49" vertex="1">
          <mxGeometry y="78" width="270" height="26" as="geometry" />
        </mxCell>
        <mxCell id="DcUsjoclc4RK8WbiUvSw-53" value="paymentStatus: PaymentStatus" style="text;strokeColor=none;fillColor=none;align=left;verticalAlign=top;spacingLeft=4;spacingRight=4;overflow=hidden;rotatable=0;points=[[0,0.5],[1,0.5]];portConstraint=eastwest;whiteSpace=wrap;html=1;" parent="DcUsjoclc4RK8WbiUvSw-49" vertex="1">
          <mxGeometry y="104" width="270" height="26" as="geometry" />
        </mxCell>
        <mxCell id="DcUsjoclc4RK8WbiUvSw-54" value="paymentDate:Date" style="text;strokeColor=none;fillColor=none;align=left;verticalAlign=top;spacingLeft=4;spacingRight=4;overflow=hidden;rotatable=0;points=[[0,0.5],[1,0.5]];portConstraint=eastwest;whiteSpace=wrap;html=1;" parent="DcUsjoclc4RK8WbiUvSw-49" vertex="1">
          <mxGeometry y="130" width="270" height="26" as="geometry" />
        </mxCell>
        <mxCell id="zyanbXAv6wr4q_JRIPx6-1" value="Category" style="swimlane;fontStyle=0;childLayout=stackLayout;horizontal=1;startSize=26;fillColor=none;horizontalStack=0;resizeParent=1;resizeParentMax=0;resizeLast=0;collapsible=1;marginBottom=0;whiteSpace=wrap;html=1;" parent="1" vertex="1">
          <mxGeometry x="930" y="201" width="170" height="104" as="geometry" />
        </mxCell>
        <mxCell id="zyanbXAv6wr4q_JRIPx6-2" value="categoryId: int" style="text;strokeColor=none;fillColor=none;align=left;verticalAlign=top;spacingLeft=4;spacingRight=4;overflow=hidden;rotatable=0;points=[[0,0.5],[1,0.5]];portConstraint=eastwest;whiteSpace=wrap;html=1;" parent="zyanbXAv6wr4q_JRIPx6-1" vertex="1">
          <mxGeometry y="26" width="170" height="26" as="geometry" />
        </mxCell>
        <mxCell id="zyanbXAv6wr4q_JRIPx6-4" value="categoryName: string" style="text;strokeColor=none;fillColor=none;align=left;verticalAlign=top;spacingLeft=4;spacingRight=4;overflow=hidden;rotatable=0;points=[[0,0.5],[1,0.5]];portConstraint=eastwest;whiteSpace=wrap;html=1;" parent="zyanbXAv6wr4q_JRIPx6-1" vertex="1">
          <mxGeometry y="52" width="170" height="26" as="geometry" />
        </mxCell>
        <mxCell id="zyanbXAv6wr4q_JRIPx6-3" value="description: string" style="text;strokeColor=none;fillColor=none;align=left;verticalAlign=top;spacingLeft=4;spacingRight=4;overflow=hidden;rotatable=0;points=[[0,0.5],[1,0.5]];portConstraint=eastwest;whiteSpace=wrap;html=1;" parent="zyanbXAv6wr4q_JRIPx6-1" vertex="1">
          <mxGeometry y="78" width="170" height="26" as="geometry" />
        </mxCell>
        <mxCell id="zyanbXAv6wr4q_JRIPx6-6" value="" style="endArrow=none;html=1;rounded=0;exitX=1;exitY=0.5;exitDx=0;exitDy=0;entryX=0.09;entryY=0.987;entryDx=0;entryDy=0;entryPerimeter=0;fillColor=none;" parent="1" source="DcUsjoclc4RK8WbiUvSw-9" target="DcUsjoclc4RK8WbiUvSw-37" edge="1">
          <mxGeometry width="50" height="50" relative="1" as="geometry">
            <mxPoint x="280" y="490" as="sourcePoint" />
            <mxPoint x="317.5999999999999" y="161.79199999999992" as="targetPoint" />
          </mxGeometry>
        </mxCell>
        <mxCell id="zyanbXAv6wr4q_JRIPx6-7" value="" style="endArrow=none;html=1;rounded=0;exitX=1.003;exitY=0.946;exitDx=0;exitDy=0;exitPerimeter=0;entryX=-0.01;entryY=0;entryDx=0;entryDy=0;entryPerimeter=0;fillColor=none;" parent="1" source="DcUsjoclc4RK8WbiUvSw-11" target="DcUsjoclc4RK8WbiUvSw-44" edge="1">
          <mxGeometry width="50" height="50" relative="1" as="geometry">
            <mxPoint x="400" y="520" as="sourcePoint" />
            <mxPoint x="330" y="560" as="targetPoint" />
          </mxGeometry>
        </mxCell>
        <mxCell id="zyanbXAv6wr4q_JRIPx6-8" value="" style="endArrow=none;html=1;rounded=0;exitX=1;exitY=0.5;exitDx=0;exitDy=0;entryX=0.002;entryY=0.929;entryDx=0;entryDy=0;entryPerimeter=0;fillColor=none;" parent="1" source="DcUsjoclc4RK8WbiUvSw-10" target="DcUsjoclc4RK8WbiUvSw-51" edge="1">
          <mxGeometry width="50" height="50" relative="1" as="geometry">
            <mxPoint x="220" y="360" as="sourcePoint" />
            <mxPoint x="270" y="310" as="targetPoint" />
          </mxGeometry>
        </mxCell>
        <mxCell id="zyanbXAv6wr4q_JRIPx6-9" value="" style="endArrow=none;html=1;rounded=0;entryX=0;entryY=0.839;entryDx=0;entryDy=0;entryPerimeter=0;exitX=1.001;exitY=0.158;exitDx=0;exitDy=0;exitPerimeter=0;fillColor=none;" parent="1" source="DcUsjoclc4RK8WbiUvSw-36" edge="1">
          <mxGeometry width="50" height="50" relative="1" as="geometry">
            <mxPoint x="510" y="90" as="sourcePoint" />
            <mxPoint x="660" y="271.81399999999985" as="targetPoint" />
          </mxGeometry>
        </mxCell>
        <mxCell id="zyanbXAv6wr4q_JRIPx6-11" value="" style="endArrow=none;html=1;rounded=0;exitX=0.451;exitY=-0.001;exitDx=0;exitDy=0;exitPerimeter=0;entryX=0.504;entryY=0.987;entryDx=0;entryDy=0;entryPerimeter=0;fillColor=none;" parent="1" source="DcUsjoclc4RK8WbiUvSw-49" target="DcUsjoclc4RK8WbiUvSw-37" edge="1">
          <mxGeometry width="50" height="50" relative="1" as="geometry">
            <mxPoint x="350" y="230" as="sourcePoint" />
            <mxPoint x="400" y="140" as="targetPoint" />
          </mxGeometry>
        </mxCell>
        <mxCell id="zyanbXAv6wr4q_JRIPx6-13" value="" style="endArrow=none;html=1;rounded=0;exitX=0.999;exitY=0.09;exitDx=0;exitDy=0;exitPerimeter=0;entryX=-0.002;entryY=0.372;entryDx=0;entryDy=0;entryPerimeter=0;fillColor=none;" parent="1" source="DcUsjoclc4RK8WbiUvSw-44" target="DcUsjoclc4RK8WbiUvSw-29" edge="1">
          <mxGeometry width="50" height="50" relative="1" as="geometry">
            <mxPoint x="590" y="550" as="sourcePoint" />
            <mxPoint x="640" y="500" as="targetPoint" />
          </mxGeometry>
        </mxCell>
        <mxCell id="zyanbXAv6wr4q_JRIPx6-14" value="" style="endArrow=none;html=1;rounded=0;exitX=1.002;exitY=0.654;exitDx=0;exitDy=0;exitPerimeter=0;entryX=0;entryY=0.5;entryDx=0;entryDy=0;fillColor=none;" parent="1" target="zyanbXAv6wr4q_JRIPx6-4" edge="1">
          <mxGeometry width="50" height="50" relative="1" as="geometry">
            <mxPoint x="800.2800000000002" y="267.0039999999999" as="sourcePoint" />
            <mxPoint x="930" y="240" as="targetPoint" />
          </mxGeometry>
        </mxCell>
        <mxCell id="FmaTkWmD4BoVcefn0_ry-4" value="*" style="text;html=1;align=center;verticalAlign=middle;whiteSpace=wrap;rounded=0;fillColor=none;" parent="1" vertex="1">
          <mxGeometry x="290" y="136" width="20" height="20" as="geometry" />
        </mxCell>
        <mxCell id="FmaTkWmD4BoVcefn0_ry-5" value="1" style="text;html=1;align=center;verticalAlign=middle;whiteSpace=wrap;rounded=0;fillColor=none;" parent="1" vertex="1">
          <mxGeometry x="190" y="280" width="20" height="20" as="geometry" />
        </mxCell>
        <mxCell id="FmaTkWmD4BoVcefn0_ry-6" value="1" style="text;html=1;align=center;verticalAlign=middle;whiteSpace=wrap;rounded=0;fillColor=none;" parent="1" vertex="1">
          <mxGeometry x="190" y="360" width="20" height="20" as="geometry" />
        </mxCell>
        <mxCell id="FmaTkWmD4BoVcefn0_ry-7" value="1" style="text;html=1;align=center;verticalAlign=middle;whiteSpace=wrap;rounded=0;fillColor=none;" parent="1" vertex="1">
          <mxGeometry x="334" y="520" width="20" height="20" as="geometry" />
        </mxCell>
        <mxCell id="FmaTkWmD4BoVcefn0_ry-8" value="1" style="text;html=1;align=center;verticalAlign=middle;whiteSpace=wrap;rounded=0;fillColor=none;" parent="1" vertex="1">
          <mxGeometry x="190" y="320" width="20" height="20" as="geometry" />
        </mxCell>
        <mxCell id="FmaTkWmD4BoVcefn0_ry-9" value="*" style="text;html=1;align=center;verticalAlign=middle;whiteSpace=wrap;rounded=0;fillColor=none;" parent="1" vertex="1">
          <mxGeometry x="259" y="320" width="20" height="20" as="geometry" />
        </mxCell>
        <mxCell id="FmaTkWmD4BoVcefn0_ry-11" value="*" style="text;html=1;align=center;verticalAlign=middle;whiteSpace=wrap;rounded=0;fillColor=none;" parent="1" vertex="1">
          <mxGeometry x="499" y="69" width="20" height="20" as="geometry" />
        </mxCell>
        <mxCell id="FmaTkWmD4BoVcefn0_ry-12" value="*" style="text;html=1;align=center;verticalAlign=middle;whiteSpace=wrap;rounded=0;fillColor=none;" parent="1" vertex="1">
          <mxGeometry x="640" y="230" width="20" height="20" as="geometry" />
        </mxCell>
        <mxCell id="FmaTkWmD4BoVcefn0_ry-13" value="*" style="text;html=1;align=center;verticalAlign=middle;whiteSpace=wrap;rounded=0;fillColor=none;" parent="1" vertex="1">
          <mxGeometry x="800" y="243" width="20" height="20" as="geometry" />
        </mxCell>
        <mxCell id="FmaTkWmD4BoVcefn0_ry-15" value="1" style="text;html=1;align=center;verticalAlign=middle;whiteSpace=wrap;rounded=0;fillColor=none;" parent="1" vertex="1">
          <mxGeometry x="910" y="243" width="20" height="20" as="geometry" />
        </mxCell>
        <mxCell id="FmaTkWmD4BoVcefn0_ry-16" value="*" style="text;html=1;align=center;verticalAlign=middle;whiteSpace=wrap;rounded=0;fillColor=none;" parent="1" vertex="1">
          <mxGeometry x="474" y="520" width="20" height="20" as="geometry" />
        </mxCell>
        <mxCell id="FmaTkWmD4BoVcefn0_ry-17" value="*" style="text;html=1;align=center;verticalAlign=middle;whiteSpace=wrap;rounded=0;fillColor=none;" parent="1" vertex="1">
          <mxGeometry x="640" y="290" width="20" height="20" as="geometry" />
        </mxCell>
        <mxCell id="FmaTkWmD4BoVcefn0_ry-18" value="1" style="text;html=1;align=center;verticalAlign=middle;whiteSpace=wrap;rounded=0;fillColor=none;" parent="1" vertex="1">
          <mxGeometry x="404" y="136" width="20" height="20" as="geometry" />
        </mxCell>
        <mxCell id="FmaTkWmD4BoVcefn0_ry-19" value="1" style="text;html=1;align=center;verticalAlign=middle;whiteSpace=wrap;rounded=0;fillColor=none;" parent="1" vertex="1">
          <mxGeometry x="404" y="250" width="20" height="20" as="geometry" />
        </mxCell>
        <mxCell id="FmaTkWmD4BoVcefn0_ry-20" value="&amp;lt;&amp;lt;Enum&amp;gt;&amp;gt;&lt;br&gt;Role" style="swimlane;fontStyle=0;childLayout=stackLayout;horizontal=1;startSize=30;fillColor=none;horizontalStack=0;resizeParent=1;resizeParentMax=0;resizeLast=0;collapsible=1;marginBottom=0;whiteSpace=wrap;html=1;" parent="1" vertex="1">
          <mxGeometry x="50" y="38" width="140" height="82" as="geometry" />
        </mxCell>
        <mxCell id="FmaTkWmD4BoVcefn0_ry-21" value="Admin" style="text;strokeColor=none;fillColor=none;align=left;verticalAlign=top;spacingLeft=4;spacingRight=4;overflow=hidden;rotatable=0;points=[[0,0.5],[1,0.5]];portConstraint=eastwest;whiteSpace=wrap;html=1;" parent="FmaTkWmD4BoVcefn0_ry-20" vertex="1">
          <mxGeometry y="30" width="140" height="26" as="geometry" />
        </mxCell>
        <mxCell id="FmaTkWmD4BoVcefn0_ry-22" value="User" style="text;strokeColor=none;fillColor=none;align=left;verticalAlign=top;spacingLeft=4;spacingRight=4;overflow=hidden;rotatable=0;points=[[0,0.5],[1,0.5]];portConstraint=eastwest;whiteSpace=wrap;html=1;" parent="FmaTkWmD4BoVcefn0_ry-20" vertex="1">
          <mxGeometry y="56" width="140" height="26" as="geometry" />
        </mxCell>
        <mxCell id="FmaTkWmD4BoVcefn0_ry-24" value="&amp;lt;&amp;lt;Enum&amp;gt;&amp;gt;&lt;br&gt;PaymentStatus" style="swimlane;fontStyle=0;childLayout=stackLayout;horizontal=1;startSize=30;fillColor=none;horizontalStack=0;resizeParent=1;resizeParentMax=0;resizeLast=0;collapsible=1;marginBottom=0;whiteSpace=wrap;html=1;" parent="1" vertex="1">
          <mxGeometry x="259" y="-200" width="140" height="82" as="geometry" />
        </mxCell>
        <mxCell id="FmaTkWmD4BoVcefn0_ry-25" value="Pending" style="text;strokeColor=none;fillColor=none;align=left;verticalAlign=top;spacingLeft=4;spacingRight=4;overflow=hidden;rotatable=0;points=[[0,0.5],[1,0.5]];portConstraint=eastwest;whiteSpace=wrap;html=1;" parent="FmaTkWmD4BoVcefn0_ry-24" vertex="1">
          <mxGeometry y="30" width="140" height="26" as="geometry" />
        </mxCell>
        <mxCell id="FmaTkWmD4BoVcefn0_ry-26" value="Paid" style="text;strokeColor=none;fillColor=none;align=left;verticalAlign=top;spacingLeft=4;spacingRight=4;overflow=hidden;rotatable=0;points=[[0,0.5],[1,0.5]];portConstraint=eastwest;whiteSpace=wrap;html=1;" parent="FmaTkWmD4BoVcefn0_ry-24" vertex="1">
          <mxGeometry y="56" width="140" height="26" as="geometry" />
        </mxCell>
        <mxCell id="FmaTkWmD4BoVcefn0_ry-34" value="&amp;lt;&amp;lt;Enum&amp;gt;&amp;gt;&lt;br&gt;PaymentMethode" style="swimlane;fontStyle=0;childLayout=stackLayout;horizontal=1;startSize=30;fillColor=none;horizontalStack=0;resizeParent=1;resizeParentMax=0;resizeLast=0;collapsible=1;marginBottom=0;whiteSpace=wrap;html=1;" parent="1" vertex="1">
          <mxGeometry x="424" y="-200" width="140" height="82" as="geometry" />
        </mxCell>
        <mxCell id="FmaTkWmD4BoVcefn0_ry-35" value="CreditCard" style="text;strokeColor=none;fillColor=none;align=left;verticalAlign=top;spacingLeft=4;spacingRight=4;overflow=hidden;rotatable=0;points=[[0,0.5],[1,0.5]];portConstraint=eastwest;whiteSpace=wrap;html=1;" parent="FmaTkWmD4BoVcefn0_ry-34" vertex="1">
          <mxGeometry y="30" width="140" height="26" as="geometry" />
        </mxCell>
        <mxCell id="FmaTkWmD4BoVcefn0_ry-36" value="Cash" style="text;strokeColor=none;fillColor=none;align=left;verticalAlign=top;spacingLeft=4;spacingRight=4;overflow=hidden;rotatable=0;points=[[0,0.5],[1,0.5]];portConstraint=eastwest;whiteSpace=wrap;html=1;" parent="FmaTkWmD4BoVcefn0_ry-34" vertex="1">
          <mxGeometry y="56" width="140" height="26" as="geometry" />
        </mxCell>
        <mxCell id="MR5AHOmAY-pjDirSUBLq-1" value="Represents a &lt;strong&gt;confirmed purchase&lt;/strong&gt; made by the user.&lt;br&gt;&lt;br&gt;Created when the user proceeds to checkout and completes the payment." style="text;html=1;align=center;verticalAlign=middle;whiteSpace=wrap;rounded=0;" vertex="1" parent="1">
          <mxGeometry x="206" y="-90" width="386" height="70" as="geometry" />
        </mxCell>
        <mxCell id="MR5AHOmAY-pjDirSUBLq-2" value="A temporary space where users add products they are considering purchasing.&lt;br&gt;&lt;br&gt;Exists as long as the user is shopping." style="text;html=1;align=center;verticalAlign=middle;whiteSpace=wrap;rounded=0;" vertex="1" parent="1">
          <mxGeometry x="221" y="600" width="386" height="70" as="geometry" />
        </mxCell>
      </root>
    </mxGraphModel>
  </diagram>
</mxfile>
